<?xml version="1.0" encoding="UTF-8" standalone="no"?>
<!-- Created with Inkscape (http://www.inkscape.org/) -->

<svg
   xmlns:dc="http://purl.org/dc/elements/1.1/"
   xmlns:cc="http://creativecommons.org/ns#"
   xmlns:rdf="http://www.w3.org/1999/02/22-rdf-syntax-ns#"
   xmlns:svg="http://www.w3.org/2000/svg"
   xmlns="http://www.w3.org/2000/svg"
   xmlns:sodipodi="http://sodipodi.sourceforge.net/DTD/sodipodi-0.dtd"
   xmlns:inkscape="http://www.inkscape.org/namespaces/inkscape"
   width="1052.3622"
   height="744.09448"
   id="svg2"
   version="1.1"
   inkscape:version="0.48.4 r9939"
   sodipodi:docname="7-life-requires-bugfixes.svg">
  <defs
     id="defs4" />
  <sodipodi:namedview
     id="base"
     pagecolor="#ffffff"
     bordercolor="#666666"
     borderopacity="1.0"
     inkscape:pageopacity="0.0"
     inkscape:pageshadow="2"
     inkscape:zoom="0.7"
     inkscape:cx="-24.296443"
     inkscape:cy="394.68795"
     inkscape:document-units="px"
     inkscape:current-layer="layer1"
     showgrid="false"
     inkscape:window-width="1920"
     inkscape:window-height="1138"
     inkscape:window-x="-8"
     inkscape:window-y="-8"
     inkscape:window-maximized="1" />
  <metadata
     id="metadata7">
    <rdf:RDF>
      <cc:Work
         rdf:about="">
        <dc:format>image/svg+xml</dc:format>
        <dc:type
           rdf:resource="http://purl.org/dc/dcmitype/StillImage" />
        <dc:title />
      </cc:Work>
    </rdf:RDF>
  </metadata>
  <g
     inkscape:label="Layer 1"
     inkscape:groupmode="layer"
     id="layer1"
     transform="translate(0,-308.2677)">
    <text
       xml:space="preserve"
       style="font-size:40px;font-style:normal;font-weight:normal;line-height:125%;letter-spacing:0px;word-spacing:0px;fill:#000000;fill-opacity:1;stroke:none;font-family:Sans"
       x="139.10558"
       y="625.98425"
       id="text2985"
       sodipodi:linespacing="125%"><tspan
         sodipodi:role="line"
         x="139.10558"
         y="625.98425"
         id="tspan2989">Foo</tspan></text>
    <text
       xml:space="preserve"
       style="font-size:40px;font-style:normal;font-weight:normal;line-height:125%;letter-spacing:0px;word-spacing:0px;fill:#000000;fill-opacity:1;stroke:none;font-family:Sans"
       x="143.73448"
       y="839.73047"
       id="text2993"
       sodipodi:linespacing="125%"><tspan
         sodipodi:role="line"
         id="tspan2995"
         x="143.73448"
         y="839.73047">Bar</tspan></text>
    <flowRoot
       xml:space="preserve"
       id="flowRoot2997"
       style="fill:black;stroke:none;stroke-opacity:1;stroke-width:1px;stroke-linejoin:miter;stroke-linecap:butt;fill-opacity:1;font-family:Sans;font-style:normal;font-weight:normal;font-size:40px;line-height:125%;letter-spacing:0px;word-spacing:0px"><flowRegion
         id="flowRegion2999"><rect
           id="rect3001"
           width="215.16249"
           height="282.84271"
           x="25.253813"
           y="103.65777" /></flowRegion><flowPara
         id="flowPara3003" /></flowRoot>    <path
       sodipodi:type="arc"
       style="fill:none;stroke:#000000;stroke-width:1px;stroke-linecap:butt;stroke-linejoin:miter;stroke-opacity:1"
       id="path3007"
       sodipodi:cx="135.36044"
       sodipodi:cy="141.03342"
       sodipodi:rx="13.131983"
       sodipodi:ry="13.131983"
       d="m 148.49243,141.03342 c 0,7.25259 -5.87939,13.13198 -13.13199,13.13198 -7.25259,0 -13.13198,-5.87939 -13.13198,-13.13198 0,-7.2526 5.87939,-13.13199 13.13198,-13.13199 7.2526,0 13.13199,5.87939 13.13199,13.13199 z"
       transform="translate(138.0203,470.39285)" />
    <path
       sodipodi:type="arc"
       style="fill:none;stroke:#000000;stroke-width:1px;stroke-linecap:butt;stroke-linejoin:miter;stroke-opacity:1"
       id="path3007-1"
       sodipodi:cx="135.36044"
       sodipodi:cy="141.03342"
       sodipodi:rx="13.131983"
       sodipodi:ry="13.131983"
       d="m 148.49243,141.03342 c 0,7.25259 -5.87939,13.13198 -13.13199,13.13198 -7.25259,0 -13.13198,-5.87939 -13.13198,-13.13198 0,-7.2526 5.87939,-13.13199 13.13198,-13.13199 7.2526,0 13.13199,5.87939 13.13199,13.13199 z"
       transform="translate(138.0203,684.32903)" />
    <text
       xml:space="preserve"
       style="font-size:40px;font-style:normal;font-weight:normal;line-height:125%;letter-spacing:0px;word-spacing:0px;fill:#000000;fill-opacity:1;stroke:none;font-family:Sans"
       x="61.390736"
       y="423.05322"
       id="text2985-7"
       sodipodi:linespacing="125%"><tspan
         sodipodi:role="line"
         x="61.390736"
         y="423.05322"
         id="tspan2989-4">Release</tspan></text>
    <path
       sodipodi:type="arc"
       style="fill:#5fd3bc;stroke:#000000;stroke-width:1px;stroke-linecap:butt;stroke-linejoin:miter;stroke-opacity:1"
       id="path3007-0"
       sodipodi:cx="135.36044"
       sodipodi:cy="141.03342"
       sodipodi:rx="13.131983"
       sodipodi:ry="13.131983"
       d="m 148.49243,141.03342 c 0,7.25259 -5.87939,13.13198 -13.13199,13.13198 -7.25259,0 -13.13198,-5.87939 -13.13198,-13.13198 0,-7.2526 5.87939,-13.13199 13.13198,-13.13199 7.2526,0 13.13199,5.87939 13.13199,13.13199 z"
       transform="translate(138.43151,267.93779)" />
    <text
       xml:space="preserve"
       style="font-size:28px;font-style:normal;font-weight:normal;line-height:125%;letter-spacing:0px;word-spacing:0px;fill:#aa0000;fill-opacity:1;stroke:none;font-family:Sans"
       x="233.06027"
       y="496.73328"
       id="text3852"
       sodipodi:linespacing="125%"><tspan
         sodipodi:role="line"
         id="tspan3854"
         x="233.06027"
         y="496.73328">v0.1</tspan></text>
    <text
       xml:space="preserve"
       style="font-size:28px;font-style:normal;font-weight:normal;line-height:125%;letter-spacing:0px;word-spacing:0px;fill:#aa0000;fill-opacity:1;stroke:none;font-family:Sans"
       x="225.9174"
       y="703.49225"
       id="text3852-9"
       sodipodi:linespacing="125%"><tspan
         sodipodi:role="line"
         id="tspan3854-4"
         x="225.9174"
         y="703.49225">v0.1</tspan></text>
    <text
       xml:space="preserve"
       style="font-size:28px;font-style:normal;font-weight:normal;line-height:125%;letter-spacing:0px;word-spacing:0px;fill:#aa0000;fill-opacity:1;stroke:none;font-family:Sans"
       x="226.63168"
       y="919.19568"
       id="text3852-9-8"
       sodipodi:linespacing="125%"><tspan
         sodipodi:role="line"
         id="tspan3854-4-8"
         x="226.63168"
         y="919.19568">v0.1</tspan></text>
    <path
       style="fill:none;stroke:#000000;stroke-width:1px;stroke-linecap:butt;stroke-linejoin:miter;stroke-opacity:1"
       d="m 272.85714,529.80877 c 19.28572,62.85714 19.28572,64.28571 19.28572,64.28571"
       id="path4438"
       inkscape:connector-curvature="0"
       transform="translate(0,308.2677)" />
    <path
       style="fill:none;stroke:#000000;stroke-width:1px;stroke-linecap:butt;stroke-linejoin:miter;stroke-opacity:1"
       d="m 272.5,624.50504 c 19.28572,62.85714 19.28572,64.28571 19.28572,64.28571"
       id="path4438-4"
       inkscape:connector-curvature="0" />
    <path
       style="fill:none;stroke:#000000;stroke-width:1px;stroke-linecap:butt;stroke-linejoin:miter;stroke-opacity:1"
       d="m 272.49999,421.6479 c 19.28572,62.85714 19.28572,64.28571 19.28572,64.28571"
       id="path4438-5"
       inkscape:connector-curvature="0" />
    <path
       sodipodi:type="arc"
       style="fill:none;stroke:#000000;stroke-width:1px;stroke-linecap:butt;stroke-linejoin:miter;stroke-opacity:1"
       id="path3007-5"
       sodipodi:cx="135.36044"
       sodipodi:cy="141.03342"
       sodipodi:rx="13.131983"
       sodipodi:ry="13.131983"
       d="m 148.49243,141.03342 c 0,7.25259 -5.87939,13.13198 -13.13199,13.13198 -7.25259,0 -13.13198,-5.87939 -13.13198,-13.13198 0,-7.2526 5.87939,-13.13199 13.13198,-13.13199 7.2526,0 13.13199,5.87939 13.13199,13.13199 z"
       transform="translate(168.92527,550.61448)" />
    <path
       sodipodi:type="arc"
       style="fill:none;stroke:#000000;stroke-width:1px;stroke-linecap:butt;stroke-linejoin:miter;stroke-opacity:1"
       id="path3007-5-1"
       sodipodi:cx="135.36044"
       sodipodi:cy="141.03342"
       sodipodi:rx="13.131983"
       sodipodi:ry="13.131983"
       d="m 148.49243,141.03342 c 0,7.25259 -5.87939,13.13198 -13.13199,13.13198 -7.25259,0 -13.13198,-5.87939 -13.13198,-13.13198 0,-7.2526 5.87939,-13.13199 13.13198,-13.13199 7.2526,0 13.13199,5.87939 13.13199,13.13199 z"
       transform="translate(167.63956,768.90912)" />
    <path
       sodipodi:type="arc"
       style="fill:none;stroke:#000000;stroke-width:1px;stroke-linecap:butt;stroke-linejoin:miter;stroke-opacity:1"
       id="path3007-5-1-7"
       sodipodi:cx="135.36044"
       sodipodi:cy="141.03342"
       sodipodi:rx="13.131983"
       sodipodi:ry="13.131983"
       d="m 148.49243,141.03342 c 0,7.25259 -5.87939,13.13198 -13.13199,13.13198 -7.25259,0 -13.13198,-5.87939 -13.13198,-13.13198 0,-7.2526 5.87939,-13.13199 13.13198,-13.13199 7.2526,0 13.13199,5.87939 13.13199,13.13199 z"
       transform="translate(169.63956,347.04305)" />
    <text
       xml:space="preserve"
       style="font-size:28px;font-style:normal;font-weight:normal;line-height:125%;letter-spacing:0px;word-spacing:0px;fill:#aa4400;fill-opacity:1;stroke:none;font-family:Sans"
       x="263.85687"
       y="949.53949"
       id="text3852-9-8-1"
       sodipodi:linespacing="125%"><tspan
         sodipodi:role="line"
         id="tspan3854-4-8-1"
         x="263.85687"
         y="949.53949">v0.1.0</tspan></text>
    <text
       xml:space="preserve"
       style="font-size:28px;font-style:normal;font-weight:normal;line-height:125%;letter-spacing:0px;word-spacing:0px;fill:#aa4400;fill-opacity:1;stroke:none;font-family:Sans"
       x="263.85687"
       y="731.68231"
       id="text3852-9-8-1-5"
       sodipodi:linespacing="125%"><tspan
         sodipodi:role="line"
         id="tspan3854-4-8-1-2"
         x="263.85687"
         y="731.68231">v0.1.0</tspan></text>
    <text
       xml:space="preserve"
       style="font-size:28px;font-style:normal;font-weight:normal;line-height:125%;letter-spacing:0px;word-spacing:0px;fill:#aa4400;fill-opacity:1;stroke:none;font-family:Sans"
       x="263.85687"
       y="527.39667"
       id="text3852-9-8-1-5-7"
       sodipodi:linespacing="125%"><tspan
         sodipodi:role="line"
         id="tspan3854-4-8-1-2-6"
         x="263.85687"
         y="527.39667">v0.1.0</tspan></text>
    <path
       sodipodi:type="arc"
       style="fill:none;stroke:#000000;stroke-width:1px;stroke-linecap:butt;stroke-linejoin:miter;stroke-opacity:1"
       id="path3007-14"
       sodipodi:cx="135.36044"
       sodipodi:cy="141.03342"
       sodipodi:rx="13.131983"
       sodipodi:ry="13.131983"
       d="m 148.49243,141.03342 c 0,7.25259 -5.87939,13.13198 -13.13199,13.13198 -7.25259,0 -13.13198,-5.87939 -13.13198,-13.13198 0,-7.2526 5.87939,-13.13199 13.13198,-13.13199 7.2526,0 13.13199,5.87939 13.13199,13.13199 z"
       transform="translate(195.35384,470.39285)" />
    <path
       sodipodi:type="arc"
       style="fill:#5fd3bc;stroke:#000000;stroke-width:1px;stroke-linecap:butt;stroke-linejoin:miter;stroke-opacity:1"
       id="path3007-14-2"
       sodipodi:cx="135.36044"
       sodipodi:cy="141.03342"
       sodipodi:rx="13.131983"
       sodipodi:ry="13.131983"
       d="m 148.49243,141.03342 c 0,7.25259 -5.87939,13.13198 -13.13199,13.13198 -7.25259,0 -13.13198,-5.87939 -13.13198,-13.13198 0,-7.2526 5.87939,-13.13199 13.13198,-13.13199 7.2526,0 13.13199,5.87939 13.13199,13.13199 z"
       transform="translate(250.35384,470.39285)" />
    <path
       sodipodi:type="arc"
       style="fill:#5fd3bc;stroke:#000000;stroke-width:1px;stroke-linecap:butt;stroke-linejoin:miter;stroke-opacity:1"
       id="path3007-14-3"
       sodipodi:cx="135.36044"
       sodipodi:cy="141.03342"
       sodipodi:rx="13.131983"
       sodipodi:ry="13.131983"
       d="m 148.49243,141.03342 c 0,7.25259 -5.87939,13.13198 -13.13199,13.13198 -7.25259,0 -13.13198,-5.87939 -13.13198,-13.13198 0,-7.2526 5.87939,-13.13199 13.13198,-13.13199 7.2526,0 13.13199,5.87939 13.13199,13.13199 z"
       transform="translate(196.13956,684.32903)" />
    <path
       style="fill:none;stroke:#000000;stroke-width:1px;stroke-linecap:butt;stroke-linejoin:miter;stroke-opacity:1"
       d="m 286.60714,303.82662 30.98215,0"
       id="path4639"
       inkscape:connector-curvature="0"
       transform="translate(0,308.2677)" />
    <path
       style="fill:none;stroke:#000000;stroke-width:1px;stroke-linecap:butt;stroke-linejoin:miter;stroke-opacity:1"
       d="m 344.01786,303.73734 28.57143,0"
       id="path4641"
       inkscape:connector-curvature="0"
       transform="translate(0,308.2677)" />
    <path
       style="fill:none;stroke:#000000;stroke-width:1px;stroke-linecap:butt;stroke-linejoin:miter;stroke-opacity:1"
       d="m 286.60714,517.57662 31.69643,0"
       id="path4643"
       inkscape:connector-curvature="0"
       transform="translate(0,308.2677)" />
    <path
       style="fill:none;stroke:#000000;stroke-width:1px;stroke-linecap:butt;stroke-linejoin:miter;stroke-opacity:1"
       d="m 316.42857,602.1302 32.23215,-0.0893"
       id="path4645"
       inkscape:connector-curvature="0"
       transform="translate(0,308.2677)" />
    <path
       sodipodi:type="arc"
       style="fill:#ff0000;stroke:#000000;stroke-width:1px;stroke-linecap:butt;stroke-linejoin:miter;stroke-opacity:1"
       id="path3007-5-1-2"
       sodipodi:cx="135.36044"
       sodipodi:cy="141.03342"
       sodipodi:rx="13.131983"
       sodipodi:ry="13.131983"
       d="m 148.49243,141.03342 c 0,7.25259 -5.87939,13.13198 -13.13199,13.13198 -7.25259,0 -13.13198,-5.87939 -13.13198,-13.13198 0,-7.2526 5.87939,-13.13199 13.13198,-13.13199 7.2526,0 13.13199,5.87939 13.13199,13.13199 z"
       transform="translate(226.8717,768.90912)" />
  </g>
</svg>
